PathFileType	4	(X/Y/Z)	C:\Users\Basilio\Documents\Thesis Gigler\squatting_fais\c3dfiles\058\SLS_front_pre4\markers_experimental.trc
DataRate	CameraRate	NumFrames	NumMarkers	Units	OrigDataRate	OrigDataStartFrame	OrigNumFrames
200.000000	200.000000	4	61	mm	200.000000	961	1282
Frame#	Time	FHD			LBHD			RBHD			C7			T10			CLAV			LSHO			LUUPA			LMUPA			LDUPA			LLEP			LRAD			LUL			LRFIN			RSHO			RUPA1			RMUPA			RDUPA			RLEP			RMEP			RRAD			RUL			RUFIN			LASI			RASI			USACR			LSACR			RSACR			LTHI1			LTHI2			LTHI3			LTHI4			LLFC			LMFC			LTIB1			LTIB2			LTIB3			LTIB4			LLMAL			LMMAL			LHEE			LMT1			LMT2			LMT5			RTHI			RTHI2			RTHI3			RTHI4			RLFC			RMFC			RTIB1			RTIB2			RTIB3			RTIB4			RLMAL			RMMAL			RHEE			RMT1			RMT2			RMT5			LMEP			
		X1	Y1	Z1	X2	Y2	Z2	X3	Y3	Z3	X4	Y4	Z4	X5	Y5	Z5	X6	Y6	Z6	X7	Y7	Z7	X8	Y8	Z8	X9	Y9	Z9	X10	Y10	Z10	X11	Y11	Z11	X12	Y12	Z12	X13	Y13	Z13	X14	Y14	Z14	X15	Y15	Z15	X16	Y16	Z16	X17	Y17	Z17	X18	Y18	Z18	X19	Y19	Z19	X20	Y20	Z20	X21	Y21	Z21	X22	Y22	Z22	X23	Y23	Z23	X24	Y24	Z24	X25	Y25	Z25	X26	Y26	Z26	X27	Y27	Z27	X28	Y28	Z28	X29	Y29	Z29	X30	Y30	Z30	X31	Y31	Z31	X32	Y32	Z32	X33	Y33	Z33	X34	Y34	Z34	X35	Y35	Z35	X36	Y36	Z36	X37	Y37	Z37	X38	Y38	Z38	X39	Y39	Z39	X40	Y40	Z40	X41	Y41	Z41	X42	Y42	Z42	X43	Y43	Z43	X44	Y44	Z44	X45	Y45	Z45	X46	Y46	Z46	X47	Y47	Z47	X48	Y48	Z48	X49	Y49	Z49	X50	Y50	Z50	X51	Y51	Z51	X52	Y52	Z52	X53	Y53	Z53	X54	Y54	Z54	X55	Y55	Z55	X56	Y56	Z56	X57	Y57	Z57	X58	Y58	Z58	X59	Y59	Z59	X60	Y60	Z60	X61	Y61	Z61	

962	4.805	-334.9783325195313	1811.379638671875	-608.0807495117189	-481.0450744628907	1741.205810546875	-687.0579223632814	-319.4192199707032	1822.502319335938	-749.2243652343751	-489.1126403808595	1603.751098632813	-703.8649291992189	-525.3526000976564	1298.876342773438	-699.6094360351564	-331.2245178222657	1555.369750976563	-688.0111083984376	-332.5948791503907	1608.520141601563	-840.7489013671877	-184.3501892089844	1541.592895507813	-955.101501464844	-157.6210327148438	1575.925048828125	-928.2135009765627	-114.9825973510742	1538.183349609375	-947.7497558593752	-39.28635025024415	1538.017822265625	-932.4331054687502	226.5484161376954	1535.256958007813	-828.7280273437502	231.3269958496094	1563.214477539063	-905.2362060546877	328.0165710449219	1556.274047851563	-825.732849121094	-350.2460021972657	1602.842041015625	-534.9302368164064	-196.4852142333985	1514.414916992188	-425.5044250488282	-172.3373260498047	1551.863891601563	-448.9185791015626	-127.0884246826172	1521.976440429688	-425.8434448242189	-59.34232711791994	1512.75439453125	-432.2379150390626	-51.10149383544923	1456.454711914063	-485.430633544922	213.1597442626954	1540.904663085938	-506.7651367187501	210.1266479492188	1551.449096679688	-425.7431640625001	305.3377685546876	1565.4208984375	-490.4974060058595	-366.2342529296876	1108.12548828125	-855.3885498046877	-348.4504699707032	1074.77392578125	-619.5098876953126	-546.6036376953126	1174.00390625	-701.0463256835939	-558.6865844726564	1146.303833007813	-731.1075439453126	-547.4468994140626	1139.081787109375	-674.9669189453126	-321.9245910644532	863.8397216796877	-942.4576416015627	-263.5681762695313	803.430114746094	-935.5904541015627	-224.6830749511719	818.3196411132815	-906.0452880859377	-267.8273010253907	743.4683837890626	-931.4895019531252	-224.5923309326172	653.6166992187501	-923.6903076171877	-205.3964996337891	647.2462768554689	-795.5750732421877	-116.6315002441407	553.6013183593751	-888.6704101562502	-145.6983489990235	500.9758605957032	-949.1026611328127	-107.9910430908203	508.7393493652345	-924.7195434570315	-73.18605041503908	434.3873596191407	-903.7031250000002	-42.15726852416993	230.0222167968751	-929.1553955078127	-26.35619735717774	251.3757781982422	-839.2078247070315	-80.42189788818361	167.9234619140625	-877.5086669921877	122.6475067138672	260.1336059570313	-861.2038574218752	125.3552856445313	266.0343322753907	-907.4654541015627	90.70075988769533	224.7863922119141	-960.1107177734377	-436.2995910644532	857.493591308594	-564.3710327148439	-391.9064331054689	807.5869140625002	-563.7267456054689	-358.8893127441407	811.0142211914065	-564.7484130859376	-407.800506591797	728.4155273437501	-587.7229003906251	-378.1542053222657	554.0232543945314	-618.1135864257814	-340.2243652343751	554.9450683593751	-748.7681884765626	-316.7096252441407	359.7622680664063	-715.5226440429689	-355.6563415527344	276.6608276367188	-657.4874267578126	-317.9058532714844	273.5157165527344	-687.3944702148439	-326.7319335937501	231.0809326171876	-727.0321655273439	-383.6222534179688	118.6272430419922	-696.1120605468751	-350.9941711425782	146.5024108886719	-780.673522949219	-446.1297302246095	104.7503509521485	-762.6386108398439	-239.8834838867188	60.32810592651369	-770.3082275390627	-231.9793548583985	61.38473129272462	-717.3913574218751	-283.0325622558594	30.2313404083252	-667.1283569335939	-36.8613395690918	1479.87353515625	-901.7268676757815	
963	4.81	-335.3475646972657	1811.748046875	-608.3972167968751	-481.5346679687501	1741.57763671875	-687.2538452148439	-320.0645141601563	1822.816040039063	-749.4910888671876	-489.5158996582032	1604.076293945313	-703.9188232421876	-525.1109619140626	1299.045776367188	-699.5713500976564	-331.5302124023438	1555.806396484375	-688.0972290039064	-332.8985290527344	1608.844604492188	-840.9644775390627	-184.7064208984375	1541.828247070313	-955.1315917968752	-157.9421539306641	1576.186645507813	-928.2652587890627	-115.3519973754883	1538.390502929688	-947.8057250976565	-39.66112518310548	1538.304077148438	-932.5028076171877	226.2006988525391	1535.422241210938	-828.7338867187502	230.944076538086	1563.460693359375	-905.3010253906252	327.9051208496094	1556.549072265625	-825.6414794921877	-350.6004943847657	1603.305908203125	-534.6028442382814	-196.7803802490235	1514.533813476563	-425.7203369140626	-172.7519836425782	1552.24853515625	-448.8084106445314	-127.4626617431641	1522.256713867188	-425.9175415039064	-59.87672424316408	1512.887573242188	-432.114227294922	-51.4832229614258	1456.731567382813	-485.4130859375001	211.1615447998047	1540.34228515625	-507.0578613281251	209.8141326904297	1551.579223632813	-425.7812500000001	305.1000061035157	1565.634643554688	-490.4439697265626	-365.7550659179688	1108.497192382813	-855.407165527344	-347.5642395019532	1074.991577148438	-619.5186767578126	-546.0700683593751	1174.091430664063	-700.9368896484376	-558.1769409179689	1146.447631835938	-730.9796142578126	-546.9894409179689	1139.094970703125	-674.9390258789064	-321.7461547851563	863.9336547851565	-942.6536865234377	-263.4927368164063	803.4087524414065	-935.8196411132815	-224.6836700439454	818.275085449219	-906.210144042969	-267.8933410644532	743.4346313476564	-931.6240234375002	-224.6001586914063	653.5808715820314	-923.8164672851565	-205.4002838134766	647.0349731445314	-795.7476806640627	-116.8387908935547	553.4442138671876	-888.8342285156252	-145.9744262695313	500.9247131347657	-949.3485107421877	-108.2533416748047	508.4031066894532	-924.8260498046877	-73.18508911132814	434.2113037109376	-903.645935058594	-42.88035202026368	229.7330780029297	-929.6868286132815	-27.02703857421876	250.8331451416016	-839.5396728515627	-81.47032928466798	168.4270172119141	-877.9324951171877	121.8742141723633	259.4070434570313	-861.542907714844	124.5377197265625	265.3681335449219	-907.7690429687502	89.80062103271486	224.3465118408204	-960.4876098632815	-436.0744018554689	857.9260864257815	-564.5094604492189	-391.9388427734376	807.892272949219	-563.8845825195314	-359.1015930175782	811.034606933594	-564.8203735351564	-408.1983337402345	728.5975341796876	-587.9253540039064	-378.8371276855469	554.0380249023439	-618.3790283203126	-341.0129394531251	554.9396362304689	-749.0240478515626	-317.0628051757813	359.9342651367188	-715.7340698242189	-355.7760620117188	276.7407226562501	-657.7144775390626	-317.9635314941407	273.6709899902344	-687.6701660156251	-326.8825073242188	231.3646392822266	-727.2152709960939	-383.6349182128907	118.7230834960938	-696.2624511718751	-351.0703735351563	146.5078430175782	-780.910095214844	-446.0921325683595	104.7572250366211	-762.6699829101564	-239.7858581542969	60.25588607788087	-770.3945922851565	-231.9859466552735	61.35515594482423	-717.4568481445314	-283.0252685546876	30.27722358703614	-667.1491699218751	-36.78142547607423	1480.126586914063	-902.161071777344	
964	4.815	-335.6956481933594	1812.124389648438	-608.5541992187501	-482.0752563476564	1742.408569335938	-687.3292236328126	-320.6062011718751	1823.134887695313	-749.6744384765626	-489.9810180664064	1604.414306640625	-703.9279174804689	-524.8684692382814	1299.265380859375	-699.5189819335939	-331.9265747070313	1556.1962890625	-688.2007446289064	-333.4812316894532	1609.228637695313	-841.0635986328127	-185.084945678711	1542.009399414063	-955.178894042969	-158.3069305419922	1576.317504882813	-928.3416748046877	-115.7212448120117	1538.609008789063	-947.8525390625002	-39.95194244384766	1538.427124023438	-932.5535278320315	225.7182617187501	1535.530883789063	-828.7541503906252	230.4865417480469	1563.617797851563	-905.2476196289065	327.3964538574219	1556.708129882813	-825.7988281250002	-350.7601318359376	1603.67431640625	-534.8767089843751	-197.0529479980469	1514.836669921875	-425.8003845214845	-172.6977691650391	1552.818481445313	-448.8135986328126	-127.7285919189453	1522.63232421875	-425.9591064453126	-60.28054428100587	1512.985961914063	-432.1039428710939	-51.60214996337892	1456.935302734375	-485.4911499023439	210.8189697265626	1540.516845703125	-507.0711364746095	209.5416717529297	1551.663696289063	-425.8390502929689	304.8623046875001	1566.006713867188	-490.3811950683595	-365.1999816894532	1108.758544921875	-855.381042480469	-347.0060424804688	1075.27490234375	-619.4240722656251	-545.7181396484376	1174.207641601563	-700.7744750976564	-557.7452392578126	1146.5771484375	-730.8736572265626	-546.5288085937501	1139.31787109375	-674.9403076171876	-321.5664672851563	863.9575195312502	-942.7954101562502	-263.3801574707032	803.3532714843752	-936.0859375000002	-224.6258239746094	818.1447753906252	-906.423278808594	-267.8674621582032	743.3684082031251	-931.7329711914065	-224.5403900146485	653.5350952148439	-923.928894042969	-205.381088256836	646.8712768554689	-795.9429931640627	-117.1767044067383	553.1154174804689	-888.965270996094	-146.0556182861328	500.7162475585939	-949.6838989257815	-108.6148910522461	507.5669250488282	-924.9807739257815	-73.61677551269533	434.020721435547	-903.883728027344	-43.40353775024415	229.660385131836	-929.927429199219	-27.68282699584962	250.4451293945313	-839.8421020507815	-82.32132720947267	167.8744049072266	-878.4473876953127	121.0751571655274	258.5928649902344	-861.893981933594	123.882194519043	264.7145385742188	-908.131286621094	89.09648895263673	223.8945312500001	-961.0157470703127	-435.8601684570314	858.227478027344	-564.6389160156251	-392.0563354492189	807.9495849609377	-563.9838867187501	-359.1534423828126	811.1477661132815	-564.9119262695314	-408.4642944335939	728.9086914062501	-588.1659545898439	-379.6774902343751	554.3234863281251	-618.5770263671876	-341.7182617187501	554.9667358398439	-749.3558959960939	-317.4821472167969	360.0479431152344	-716.0175170898439	-355.9478149414063	276.6869506835938	-657.9123535156251	-318.2414245605469	273.6168212890626	-687.7803344726564	-326.9220275878907	231.4298858642579	-727.4107055664064	-383.7374877929688	118.790153503418	-696.4436035156251	-351.1994628906251	146.4479370117188	-781.137634277344	-446.1106262207032	104.7193145751953	-762.7561645507814	-239.7642517089844	60.16607666015626	-770.4973144531252	-231.9789733886719	61.3644485473633	-717.5946655273439	-283.0508422851563	30.33272743225098	-667.1934814453126	-37.39988708496094	1480.238037109375	-901.8612060546877	
965	4.82	-336.1945190429688	1812.690795898438	-608.6002807617189	-482.8995361328126	1742.748046875	-687.5238647460939	-321.0806579589844	1823.395385742188	-749.8469238281251	-490.4679565429689	1604.596069335938	-703.9523925781251	-524.6430053710939	1299.305786132813	-699.4593505859376	-332.2987976074219	1556.614990234375	-688.2935791015626	-333.4465942382813	1609.5986328125	-841.0993652343752	-185.4796447753907	1542.090454101563	-955.2700805664065	-158.5363006591797	1576.529663085938	-928.4648437500002	-116.1964950561524	1538.787841796875	-947.8743896484377	-40.38047409057618	1538.613525390625	-932.5948486328127	225.3060607910157	1535.6318359375	-828.8211669921877	230.0665893554688	1563.657104492188	-905.2619628906252	327.1705932617188	1556.946533203125	-825.8588867187502	-350.8782348632813	1604.103759765625	-534.9180297851564	-197.1608276367188	1515.088745117188	-425.9163513183595	-173.0310211181641	1552.920532226563	-448.9537353515626	-127.8511657714844	1522.829467773438	-426.0236816406251	-60.52268218994142	1513.040161132813	-432.0274963378907	-51.99696731567384	1457.21875	-485.4572143554689	210.5364074707032	1540.668823242188	-507.1518859863282	209.2738800048829	1551.893798828125	-425.8563232421876	304.2832336425782	1565.611938476563	-490.8938293457032	-364.6201477050782	1109.008666992188	-855.3701782226565	-346.7713623046876	1075.425537109375	-619.3006591796876	-545.1219482421876	1174.454833984375	-700.6331176757814	-557.2692871093751	1146.77099609375	-730.7760620117189	-546.0074462890626	1139.433227539063	-674.8854980468751	-321.4025878906251	863.9841918945315	-943.010925292969	-263.3009033203126	803.2932128906252	-936.3341064453127	-224.581283569336	818.0217285156252	-906.5949707031252	-267.8308410644532	743.3052368164064	-931.870300292969	-224.6283111572266	653.5154418945314	-924.028015136719	-205.407699584961	646.8278198242189	-796.1981201171877	-117.262451171875	552.8495483398439	-889.1802978515627	-146.242416381836	500.636932373047	-949.9565429687502	-108.6931076049805	507.5233154296876	-925.2444458007815	-74.14651489257814	433.620086669922	-904.1947021484377	-44.30479049682618	229.1597137451172	-930.3955688476565	-28.54301643371583	249.990707397461	-840.279479980469	-83.34915161132814	167.5877532958985	-878.9001464843752	120.2742233276367	257.6378173828126	-862.327331542969	123.1948394775391	263.8787841796876	-908.5554199218752	88.21203613281251	223.2062072753907	-961.467468261719	-435.6771240234376	858.4426269531252	-564.6993408203126	-392.2027893066407	808.0100097656252	-563.9223022460939	-359.0728149414063	811.225769042969	-565.0147705078126	-408.6356811523439	729.1583862304689	-588.3356933593751	-380.2354736328126	554.3349609375001	-618.7976074218751	-342.5219421386719	555.0031738281251	-749.6590576171876	-317.9462585449219	360.2096252441407	-716.3168334960939	-356.0911254882813	276.6907348632813	-658.1723632812501	-318.3450317382813	273.6253967285157	-687.9926757812501	-326.9861450195313	231.5497131347657	-727.6276855468751	-383.6962585449219	118.8307571411133	-696.5995483398439	-351.1845092773438	146.4498138427735	-781.3173828125002	-446.1812438964845	104.6363983154297	-762.7772827148439	-239.7303924560547	60.09534835815431	-770.5759277343752	-231.9586029052735	61.36846923828126	-717.6600341796876	-283.0055236816407	30.4243278503418	-667.2555541992189	-37.82283782958985	1480.458740234375	-901.7608642578127	
